# xmcd
#
# Track frame offsets:
#	150
#	11932
#	22613
#	35886
#
# Disc length: 685 seconds
#
# Revision: 0
# Processed by: cddbd v1.5.2PL0 Copyright (c) Steve Scherf et al.
# Submitted via: audiograbber 1.83.01
#
DISCID=2802ab04
DTITLE=Slim Dusty and Shorty Ranger - The Men From Nulla Nulla/West Of Winton
DYEAR=2001
DGENRE=Country
TTITLE0=The Men From Nulla Nulla
TTITLE1=Good Old Days
TTITLE2=Back With The Show Again
TTITLE3=Waltzing Matilda
EXTD=
EXTT0=
EXTT1=
EXTT2=
EXTT3=
PLAYORDER=
